<?xml version="1.0" encoding="UTF-8"?><svg xmlns="http://www.w3.org/2000/svg" xmlns:xlink="http://www.w3.org/1999/xlink" data-name="Layer 1" height="263.5" preserveAspectRatio="xMidYMid meet" version="1.0" viewBox="70.1 67.5 262.3 263.5" width="262.3" zoomAndPan="magnify"><g id="change1_1"><path d="M331.69,199c0,1.22.59.78.71,1C332.21,197.95,331.53,199.09,331.69,199Z" fill="#6735F4"/></g><g id="change1_2"><path d="M328.61 179.18L328.93 179.49 327.79 176.7 328.61 179.18z" fill="#6735F4"/></g><g id="change1_3"><path d="M324.36,161c-.55,2,2.11,6.42,2.4,9.79l-.11.59,1.18,1.28c-.54-2-1.17-4.2-1.88-6.26A42.48,42.48,0,0,1,324.36,161Z" fill="#6735F4"/></g><g id="change1_4"><path d="M323.15,150.81c-.16.74-1.14-1.9.74,2.24,0-.23,0-.3-.06-.44C323.68,152.24,323.47,151.71,323.15,150.81Z" fill="#6735F4"/></g><g id="change1_5"><path d="M323.84,152.62c.76,1.85-.15-1.34,0,0Z" fill="#6735F4"/></g><g id="change1_6"><path d="M320,144.21l1.42,2.25c0-.6-.92-2.77-.4-2C319.74,142,319.75,142.65,320,144.21Z" fill="#6735F4"/></g><g id="change1_7"><path d="M318.26,142.3c.26.38.51.76.73,1.15C319,143.19,318.88,142.84,318.26,142.3Z" fill="#6735F4"/></g><g id="change1_8"><path d="M320.48,145.94,319,143.45c0,.42-.3.6.65,1.15C319.26,144.52,319.77,144.91,320.48,145.94Z" fill="#6735F4"/></g><g id="change1_9"><path d="M321,147.49c.41,1.43.95,3.24-.39,1,1,2.27,1.6,3.19,1.71,2.95a2.79,2.79,0,0,0-.22-1.2A17.29,17.29,0,0,0,321,147.49Z" fill="#6735F4"/></g><g id="change1_10"><path d="M323,160.47c.11.64.22,1.28.28,1.93l.8,1.5a11.25,11.25,0,0,1-.55-2.08C323.35,161,323.14,160.36,323,160.47Z" fill="#6735F4"/></g><g id="change1_11"><path d="M312.67,129.54c-.28,0,0,1.07-.18,1.38.43.49.82,1,1.22,1.53C313.38,131.49,312.46,129.83,312.67,129.54Z" fill="#6735F4"/></g><g id="change1_12"><path d="M312.49,130.92l-1.89-2.23C312,130.89,312.37,131.19,312.49,130.92Z" fill="#6735F4"/></g><g id="change1_13"><path d="M317,142.41c1,1.26,1.82,2.61,2.74,3.92-1-1.6-2-3.2-3.16-4.72Z" fill="#6735F4"/></g><g id="change1_14"><path d="M306.41,120.32c.47.33.93.69,1.39,1l-1.18-1-1.23-.92Z" fill="#6735F4"/></g><g id="change1_15"><path d="M301.73,114.61c1.14.65-.54-1.75.52-.94a26.08,26.08,0,0,0-4.07-3.46A19,19,0,0,1,301.73,114.61Z" fill="#6735F4"/></g><g id="change1_16"><path d="M296,108.67c.64.52,1.36,1,2.15,1.54A16.08,16.08,0,0,0,296,108.67Z" fill="#6735F4"/></g><g id="change1_17"><path d="M308,124.55a4.21,4.21,0,0,0-.79-2.24l.14,1.3Z" fill="#6735F4"/></g><g id="change1_18"><path d="M307.3,123.66v0l-1.4-2Z" fill="#6735F4"/></g><g id="change1_19"><path d="M308.11,124.78l-.16-.24C308,124.67,308,124.74,308.11,124.78Z" fill="#6735F4"/></g><g id="change1_20"><path d="M314,135.5c-1.16-1.29-3.23-4.12-2-.91C312.93,135.41,312.23,133.57,314,135.5Z" fill="#6735F4"/></g><g id="change1_21"><path d="M308.27,126.39c.55.86,1,1.76,1.55,2.64.11-.14,0-.74.62-.13C309.71,128.05,309,127.2,308.27,126.39Z" fill="#6735F4"/></g><g id="change1_22"><path d="M307.24 125.28L308.27 126.39 307.66 125.43 307.24 125.28z" fill="#6735F4"/></g><g id="change1_23"><path d="M299.16,113a14.68,14.68,0,0,1-1.57-1.41l-1.66-1.63c1.14,1.33,2.28,2.75,3.4,4.06C299.64,114,300.41,114.38,299.16,113Z" fill="#6735F4"/></g><g id="change1_24"><path d="M303.21,118.1l-.21-.21C303.07,118.06,303.15,118.19,303.21,118.1Z" fill="#6735F4"/></g><g id="change1_25"><path d="M284.22,98.86l.12.26.12,0Z" fill="#6735F4"/></g><g id="change1_26"><path d="M299.43,114.29a7.44,7.44,0,0,0,2,2c-.69-.7-1.41-1.47-2.15-2.31C299.19,114,299.13,114,299.43,114.29Z" fill="#6735F4"/></g><g id="change1_27"><path d="M292.66,105.64l1.37,1.87C293.73,106.87,293,105.69,292.66,105.64Z" fill="#6735F4"/></g><g id="change1_28"><path d="M302.86,117.43l.14.14C302.85,117.14,302.83,117.22,302.86,117.43Z" fill="#6735F4"/></g><g id="change1_29"><path d="M302.86,117.43a12.92,12.92,0,0,0-1.39-1.13c.54.6,1,1.14,1.52,1.59A2.34,2.34,0,0,1,302.86,117.43Z" fill="#6735F4"/></g><g id="change1_30"><path d="M277.88,99.07c.27-.17,1.15.16,2.21.83a12.65,12.65,0,0,1,1.65,1.23,12.88,12.88,0,0,1,1.5,1.66c2.46,1.54,2.35-1.14,1.1-3.67-.25.15-.36.28-3-1.3.68.85,4.61,4.86,2.36,3.62a15.25,15.25,0,0,1-2.55-2.16,14.13,14.13,0,0,0-1.12-1.51c.41.8-.74.23-2-.35s-2.64-1.11-2.61-.44c1,.54,2,1.16,3,1.76C278.37,98.92,277.23,98.36,277.88,99.07Z" fill="#6735F4"/></g><g id="change1_31"><path d="M288.65,103l1,.81a37.84,37.84,0,0,1-2.68-3.49c-1.77-1.15-2.23-1.26-2.47-1.2,1.52,1.37,3.09,2.7,4.56,4.11Z" fill="#6735F4"/></g><g id="change1_32"><path d="M293.63,107.66c-1.11-.28-3.49-2.09-2.65-.35,2.61,2.5,2.15,1.43,3.87,2.79-4.17-4.14,1.43,1-1.25-2.36.88.76,1.62,1.5,2.32,2.19-.68-.82-1.32-1.63-1.9-2.42l.07.13,0,0h0c.12.24.14.34,0,.1l-.09-.08a.68.68,0,0,1-.36,0c-1.09-1.33-.07-.31.36,0,0,0,.09,0,.12,0v0c-1.43-1.36-3-2.58-4.49-3.87C290.44,104.71,291.62,105.73,293.63,107.66Z" fill="#6735F4"/></g><g id="change1_33"><path d="M309.18,132.65c0-.18,0-.2,0-.23C308.94,132.14,308.81,132.05,309.18,132.65Z" fill="#6735F4"/></g><g id="change1_34"><path d="M308.22,130.44a5.07,5.07,0,0,1,1.39,1.65c.48,1.1-.27.16-.41.32.6.59,1.92,2.21.82-.16l-.3-.3c-1.07-2.08-2-5.07-1.74-4.78A8.36,8.36,0,0,0,308.22,130.44Z" fill="#6735F4"/></g><g id="change1_35"><path d="M301.32,118.7c-1.06-1.23-2.23-2.37-3.36-3.52l1.19,2.23.18-.31C301,119.3,300.9,118.6,301.32,118.7Z" fill="#6735F4"/></g><g id="change1_36"><path d="M284,98.24l.93-.1c-.92-.4-1.9-.7-2.83-1Z" fill="#6735F4"/></g><g id="change1_37"><path d="M278.9,94.34l.54-.33c-.52-.25-1.06-.47-1.59-.71Z" fill="#6735F4"/></g><g id="change1_38"><path d="M92.88,263.43l.83,1.1A13.42,13.42,0,0,0,92.88,263.43Z" fill="#6735F4"/></g><g id="change1_39"><path d="M88.19,254.69l-.37-.09C88.17,254.94,88.36,255.05,88.19,254.69Z" fill="#6735F4"/></g><g id="change1_40"><path d="M130.66,87.92c-2.07.67-4.55,1.24-4,1.66l.91.19A15.56,15.56,0,0,1,130.66,87.92Z" fill="#6735F4"/></g><g id="change1_41"><path d="M74.58,174.83l.3-.55-.3-1.48C74.58,173.42,74.54,174.1,74.58,174.83Z" fill="#6735F4"/></g><g id="change1_42"><path d="M77,176.76l-.88,2.54A21.76,21.76,0,0,0,77,176.76Z" fill="#6735F4"/></g><g id="change1_43"><path d="M130,302.11c.56.13,1.11.25,1.68.35C129.63,301.08,130.35,301.95,130,302.11Z" fill="#6735F4"/></g><g id="change1_44"><path d="M218.74,69.73a39,39,0,0,0-4.47-1C216.42,69.41,218.09,70.19,218.74,69.73Z" fill="#6735F4"/></g><g id="change1_45"><path d="M84.88,263.38c.54.71.85,1,1,.88C85.29,263.52,84.93,263.14,84.88,263.38Z" fill="#6735F4"/></g><g id="change1_46"><path d="M209,68.33c.32.09.63.15,1,.23a28.13,28.13,0,0,1,4.3.21A11.83,11.83,0,0,0,209,68.33Z" fill="#6735F4"/></g><g id="change1_47"><path d="M303.1,269.55c.1-.1.21-.24.31-.33S303.24,269.29,303.1,269.55Z" fill="#6735F4"/></g><g id="change1_48"><path d="M329.72,217.45c0,.59-.16,1.55-.26,2.46A16.14,16.14,0,0,0,329.72,217.45Z" fill="#6735F4"/></g><g id="change1_49"><path d="M257,80.73c1.25.55.23,0,0,0Z" fill="#6735F4"/></g><g id="change1_50"><path d="M261.65,86c-.29-.07-.52-.08-.63,0A.91.91,0,0,1,261.65,86Z" fill="#6735F4"/></g><g id="change1_51"><path d="M195.6,72.15h-.11C195.88,72.27,195.81,72.24,195.6,72.15Z" fill="#6735F4"/></g><g id="change1_52"><path d="M258.66,81.92c-.42-.3-.91-.64-1.47-1C257.43,81.12,257.87,81.42,258.66,81.92Z" fill="#6735F4"/></g><g id="change1_53"><path d="M258.56,81.52l1,.6C259.79,82.1,259.69,82,258.56,81.52Z" fill="#6735F4"/></g><g id="change1_54"><path d="M255.21,80c.72.31,1.37.64,2,1-.22-.15-.31-.23-.24-.22Z" fill="#6735F4"/></g><g id="change1_55"><path d="M216.55,325l.29,0C218.1,324.57,217.54,324.68,216.55,325Z" fill="#6735F4"/></g><g id="change1_56"><path d="M108.36,115s0-.08.08-.13l-.15.12Z" fill="#6735F4"/></g><g id="change1_57"><path d="M105.65,118.74a7.15,7.15,0,0,1,2.65-3.78c-.81-.05-1.64-.11-2.44-.14Z" fill="#6735F4"/></g><g id="change1_58"><path d="M107,282.45l-1.67-2.82c3.27,2.32,4.85,4.61,3.49,1.81-.45.25-1.2-.2-2.09-1a26.73,26.73,0,0,1-2.92-3.18c-1-1.21-2-2.42-2.83-3.28s-1.52-1.42-2-1.21l-.89-2c.34.51.49.52.83,1-1.61-3.91-3-1.69-5.67-6.38-.85-1.68-1.21-3-.38-2l-2.51-3.36c-.56-1.08-.11-1,.46.08-1.08-1.82-2-3.71-3.08-5.56l.08,0a31.31,31.31,0,0,1-2.59-3.18c-.4-1.6.53.65.59.17-.63-1-1.29-2-1.89-3,0-.77.35-.52.84.2a15.66,15.66,0,0,1,1.64,3,4,4,0,0,0-.87-3.52,15.15,15.15,0,0,1-2.31-6c.44,1,1,2,1.43,3a10.19,10.19,0,0,0-.45-3.68,44.77,44.77,0,0,1-1-4.7c-.09.91.67,7.63-1,4.21a13.57,13.57,0,0,0-1.62-4.27c.69-.23,0-2.11-.76-4.51l1-.09A10.22,10.22,0,0,0,79.65,230a8.79,8.79,0,0,1-1-1.43c-.59-3,0-3.73.49-4.55-.69-4.77-.58,3.51-1.77-2.09-.09-1-.21-1.93-.36-2.83s-.25-1.77-.43-2.66c-.34-1.79-.88-3.65-1.3-6.05.11-2.85.62.45.82-.59l-1-2.45c0-.61.22-.43.35-.34-.41-2.1-1-.12-1.34-3.46-.52-.44-.24-2.18.16-4.3a17.11,17.11,0,0,0,.34-6.71c.35-1,.55.52.94.24-.18-2.83-.23-4.06-.32-5.16s-.14-2.07-.38-4.46c.37-1.29.74-2.58,1.2-3.84-1.23,2.76-1.41-1-1.51-4.46-.53,1-1,1.81-1.23,2.38.14-1.78.27-3.58.54-5.35.3-.6.5,0,.69.94,0-.37,0-.72,0-1,.77-1.78,1.09-.68,1.31.75l-1,1.73c.34,1.41.76,2.72,1.36,2.55a8.68,8.68,0,0,1,0-1.74c.1.36.2.6.32.47s0-.74,0-1.62l1.31-.93-.35-.37,1.09-3.24c.35-1.08.82-2.13,1.22-3.19.07-1.24.1-2.46.14-3.7s.19-2.5.34-3.86c.07-.68.16-1.38.27-2.11s.29-1.46.47-2.24a40.49,40.49,0,0,1,1.51-5.11c-.08,2.09,1,.88,1.81,1.35-.89.77-1.31,2.23-1.77,3.92l-.7,2.68A21,21,0,0,1,81,160c.77-1.95,1-1.36,1-.81.43-2.36,1.1-4.65,1.68-7,.64.44,1.07-1.2,2.15-2.75-1,.34-.66-1,0-2.74.17-.44.35-.91.55-1.39l.66-1.41a25.72,25.72,0,0,0,1.06-2.52c.53.07.67.93-1.06,4,2.81-2.94.67-5.36,3.49-8.25-.42.76-.73,1.13-.67,1.55a17.49,17.49,0,0,1,1.91-3.65c.76-1.12,1.47-1.79,1.33-1.19l-.46.73c.82-1.19,1.81-2.7,2.84-4.33s2.24-3.27,3.25-4.87,2-3,2.7-4.16a5,5,0,0,0,.94-2.39,5.33,5.33,0,0,1,.68,2c1.09-3.51,2.27-7.11,3.72-10.61.17,1.41,4.44.71,1.6,4.59a23.54,23.54,0,0,0,1.78-1.61c.67-.67,1.4-1.56,2.32-2.67-.79.52-2.8.5-1.95-.47,3.42-1.55,2.2-1.27,6.1-3.41-1.22.74-1.19-1.55.55-3-.1.42,1.25,1.17.75,1.83l1.54-2.45c.52-.82,1.09-1.58,1.64-2.38-.9,1.1.71,1.26,2,.88-.33,0,.61-.68,1.76-1.55s2.59-1.76,3.14-2.26l-2.13,1a14.61,14.61,0,0,0,4.47-4.43A16.85,16.85,0,0,1,132,92.3,11.8,11.8,0,0,1,135,90c-.49.68-.5,2.76,2.32,1.38A32.79,32.79,0,0,1,140,87.09a20.89,20.89,0,0,1,5.81-5.46H147c1.24-.76,2.47-1.55,3.76-2.23-1,1.05-3,3.08-5,5.07-1,1-2,2.08-3,3s-1.87,1.84-2.62,2.54c2.24-.73.85.21,3.91-1.41,1.29-.14-1.36,1.48-2.24,2,2.43-1.13,4.83-2.29,7.32-3.25-.37-.39.92-1.25,2.24-2.1s2.72-1.55,2.42-1.89c-2.63,1.34-5.12,3-7.63,4.44-.38-.38.46-1.55,2.1-2.91a19.62,19.62,0,0,1,3-2.08,27.74,27.74,0,0,1,3.85-1.74c1.51-.17-.39,2.08-.15,2.35A11.43,11.43,0,0,1,157.68,82a11.93,11.93,0,0,1,2.76-.92l-2.13,1.29a13.2,13.2,0,0,0,3.92-1.76,9.74,9.74,0,0,1,4.59-1.3c1.29-.34,4.14.27,4.22-.35-2.35-.64-3.7-4-2.45-5.16l4-.26a26.56,26.56,0,0,1,2.87,0,16.36,16.36,0,0,1,2,.14c2.33.5-2.89,2.7-.89,3.13,0-.28,1.16-.83,1.64-1,1.42,0-.42.94,2.54.29.35-1.09,6.15-.7,1.3-1a14.21,14.21,0,0,1,3.12-.41c.86,0,1.78-.06,3.53-.19-.59-.29.14-.91,1.41-1.52a15.35,15.35,0,0,1,4.6-1.42c-.17.26.53.59.86.73,1.55,0,2.92,0,4.19,0s2.45.18,3.61.27l3.52.28c1.21.14,2.49.27,3.92.38.51.28,3.23.81,2,1.14a11.62,11.62,0,0,1,3.38-.13c3.27,1.31-3.92-.36-1.46,1,.28-.54,4.62-.32,7.15-.16-.3-.5-1.73-.87-3.41-1s-3.6-.06-4.86,0c.06-.63,1.22-1.14,3.14-1.46a23.24,23.24,0,0,1,3.42-.31c1.29,0,2.73.06,4.27.19,2.44.25,2.89.65,2.87.85s-.54.35-.11.35a31.12,31.12,0,0,0,5.1.93,25.11,25.11,0,0,0,3.14.19,15.54,15.54,0,0,1,2.85.25,18,18,0,0,1,4.08,1.51c2.6,1.73-.4,1.56,0,2.32a25.08,25.08,0,0,1-4.53-1.66,28.55,28.55,0,0,0-3.63-1.39L237.35,77a18.47,18.47,0,0,1-5.16-1.22,18.39,18.39,0,0,0,3.32,1.29l2.62.81,3,1c1,.36,2.1.71,3.15,1.11l3.11,1.28A42.5,42.5,0,0,1,252.79,84c1.23.26,3.3.89,2.52.18l-2.06-.81c-1.59-1.43,4.18.9,1.75-.53a47.51,47.51,0,0,1,4.64,1.51c.82.31,1.67.67,2.53,1.09A27.19,27.19,0,0,1,264.73,87L265,88.2c.06-.27-2.11-1.85-3.28-2.19a15.38,15.38,0,0,1,3.42,2.33,17.15,17.15,0,0,0,2,1.33,3.72,3.72,0,0,0,1.81.63c-.72-.7-1.42-1.44-2.18-2.1,1.43.54,3,1.2,4.68,1.93a22.32,22.32,0,0,1,2.46,1.25A20.27,20.27,0,0,1,276.13,93c-.89-1.74-.76-.43-2.37-2.85,1.24,2.35-8.16-5.27-5.72-2.08a10.61,10.61,0,0,0-2.92-2.67,30.68,30.68,0,0,1-3.63-2.81c0,.32.87,1.1-1.9-.49a4,4,0,0,1-.74-.08l-.18-.12.14.11c-.14,0-.16,0,.05,0a5.18,5.18,0,0,1,1.23,1.15,17.81,17.81,0,0,1-4-1.27c-1.57-.57-3.13-1.19-4-1.37-1.65-.9.85,0,.05-.71-.84-.19-1.69-.36-2.55-.5,0-.71-4.24-2.88,0-1.61L246,76.27a26.35,26.35,0,0,0-7.14-2.68c-1.79-.66-4.81-.59-3.08-.65-1-.21-2.05-.45-3.08-.64l-3.11-.5,0-.18a79.84,79.84,0,0,0-9.47-1.47A71.14,71.14,0,0,1,210,68.55c-1,0-2.11,0-3.34,0s-2.64,0-4.39-.15l-.67-.6c-1.34,0-3.36,0-5.19-.09s-3.47-.07-4,.31a9,9,0,0,0-3.39-.46c-.72,0-1.51,0-2.33.09s-1.68.2-2.54.33c-1.73.28-3.53.52-5.17.87s-3.13.64-4.32.78l0,.78a40.07,40.07,0,0,0-4.77,1.15l-2.52.75c-.86.29-1.76.63-2.7,1l.42.58a43.69,43.69,0,0,1-6.14,1.84l-3.75,1c-1.27.39-2.56.86-3.83,1.37a5.89,5.89,0,0,1,2.54-1A21.19,21.19,0,0,0,149,78.37a49.77,49.77,0,0,0-4.52,2.39c-1.49.81-2.87,1.78-4.28,2.56a29.45,29.45,0,0,1-4.23,2,10.34,10.34,0,0,1-3.11,1.78,2,2,0,0,0,.3-.21l-.53.3a20.54,20.54,0,0,0-1.94.77c.61-.19,1.17-.41,1.66-.6A41.49,41.49,0,0,0,128.6,90l-1-.21-.32.23c-1.55.68-.94,1,.11,1a11.66,11.66,0,0,0-1.59,1.62c-.88-.09-1.73.63-2.63,1.38a11.31,11.31,0,0,1-1.41,1,3.27,3.27,0,0,1-1.53.57A24.9,24.9,0,0,1,116.85,99c-1.46,1.52-2.83,3.08-2.74,3.85-.15-.09-.58.18.1-.42a15.62,15.62,0,0,0-3.94,3.71l-1.21-.11-1,1.85-1,1.91c-2.11,1.4-3.07,1.94-1.87-.35-.84,1.27-1.45,2.14-1.92,2.81s-.79,1.16-1.12,1.6a29.41,29.41,0,0,0-2.44,4l-.31-.57c-1.11,1.44-2.26,4.2-3.32,4.75a23.45,23.45,0,0,0-3.33,3.76c-.7.87-1.4,1.9-2.11,3l-2.28,3.5c-3,5-6.09,10.83-8.61,15.44,1.23-.57.52.44-.29,1.75s-1.73,2.91-1.17,3.35c-.61.41-1.36,1.69-1.08,0-.41,1.28-.82,2.38-1.16,3.38s-.73,1.88-1,2.73a12.31,12.31,0,0,0-1,5.17c-.57.48-.27-1.27-.65-.81a5.08,5.08,0,0,1-.51,2.21c-.39.46-.12-.85-.06-1.72a20.13,20.13,0,0,0-.64,3.22,6.18,6.18,0,0,0,.15,2,2.58,2.58,0,0,0,1.35,1.66,13.07,13.07,0,0,0-1.1,3.17,8.36,8.36,0,0,0,.16,2.84c-.55.86-1.24,2.37-.78-1l-.56,2.56-.39,1.86-.29,2c-.35,2.67-.57,5.13-.06,5.28a9.33,9.33,0,0,0-.2,3.14l-.24,2.57c-.06.69-.07,1.27-.1,1.84,0,1.14-.07,2.28-.08,4.36l.19-1.15c1.08,1.65.25,3.45.47,6.8l-.12-.09a24.52,24.52,0,0,0-.1,3.89,11,11,0,0,0,.19,1.6,9.62,9.62,0,0,1,.17,1.58l0,3.85.66-.49c.81.26.8,1.93.72,4.1a23.7,23.7,0,0,0,.7,6.92l.12-1.64a10.7,10.7,0,0,1,.1,4.65,17.15,17.15,0,0,0-.28,4.82c0,.55-.45-.75-.72-1.46.84,6.44,1.13.57,2.63,5.08-.23,1-1.59-.71-.72,2.4.07.82,1.2,2.93,2.4,5.34.65,1.19,1.32,2.46,1.86,3.71.27.62.52,1.24.71,1.85a12.2,12.2,0,0,1,.51,1.72c0-1-.07-2.06,1.11-.17,1.44,3,2.59,8.93,5.2,11,.12.42.11.62,0,.68.8,1,1.9,2.83,3.12,4.38A19.87,19.87,0,0,0,92,272.09c-.22.86.37,2,1.27,3.38a31.45,31.45,0,0,0,3.43,4.17c1.28,1.35,2.47,2.66,3.32,3.65s1.24,1.76.8,2.12c.89,1,1.75,2,2.67,2.95l2.79,2.83H106a23.8,23.8,0,0,0,4.11,3.76,15.3,15.3,0,0,0,2.75,1.57c.78.88,0,.48-.16.51a43,43,0,0,0,5.69,5.09,35.25,35.25,0,0,0,5.95,3.27l.09,1a10.52,10.52,0,0,1,2,1.44c.93.76,2.16,1.65,3.51,2.68.68.51,1.4,1,2.15,1.56s1.57,1,2.39,1.48a28.67,28.67,0,0,0,5.08,2.5c-.1,0-.3.1-.87-.07,3.83,1.53,8,4.09,11.91,5.94s7.32,3.06,9.15,2.26c1.76.4,3.57.6,5.35.9-6.61-2.1,1.31-.85-1.3-2.06a16.06,16.06,0,0,1,3.84,1.47c.91.46,1.07.82-.56.45l-.47-.27c-1.58,1.14,8.24,2.51,7.89,3.33a172.28,172.28,0,0,0,20.14,2.7l5,.27c1.66,0,3.31,0,5,0,.82,0,1.65,0,2.46,0l2.45-.14c1.63-.12,3.26-.15,4.86-.37-.53-.3-1.06-.59-1.59-.93,1.49-.12,3-.32,4.45-.48,1.2.11,1.69.65-1.51,1a6.9,6.9,0,0,0,3.31-.48,5.45,5.45,0,0,0,2-1c6.25-.66-2.21,1.69-.31,1.38l2.58-.54-.61,0c1-.41,1.54-.74,2.29-1a11.69,11.69,0,0,1,1.38-.45c.57-.18,1.28-.36,2.22-.56,2.42-.33,1.37.38,2.32.2,0,.08.34,0,1.45-.3,1.84-.45,3.67-1,5.5-1.44l-2.42-.21c2.3-1.08,5.11-1.44,2.33-1.64,2,.16,7.11-1.33,11.81-3.27,2.37-.93,4.59-2.07,6.43-2.87a39,39,0,0,1,3.74-1.72c.71-.54,1.43-1,2.18-1.52s1.47-1,2.25-1.49c1.55-1,3.26-1.88,5.06-3-1,.42-2-.07,1.11-1.94,0,1.18,1.55.52,3.45-.65a25.7,25.7,0,0,1,5.84-3.07c-1.35.45.7-1.23,2.55-2.82s3.39-3.25,1.38-2.38c2.43-1.89.63.45,2.71-.73,1.29-1.33,2.64-2.71,4.09-4.1l2.25-2.08,2.27-2.2c.77-.75,1.57-1.48,2.33-2.26l2.27-2.42a52.93,52.93,0,0,0,4.31-5.23c-.12-.27-1.38.68-.49-1.09,1.36-1,2.6-2,3.9-3.09a5,5,0,0,0,.54-2,4.83,4.83,0,0,1,1.75-2.47c-.44.27-1.09.66-.51-.39,5.4-7.09,9.4-15.39,12.58-23.93s5.6-17.35,8.24-26.13c-.94,2.34-.7.72-.39-1.13-.33,1.18-.64-.13-1,.06.64-2.44,1.34-4.9,1.91-7.38-.44-.74-.3-2.76-.17-4.71s.11-3.83-.33-4.24L330,206c-.53-1.61-1.15-.52-1.88.87s-1.6,3.08-2.3,2.8a7,7,0,0,1,0,3c-.2,1.09-.59,2.26-.95,3.5s-.66,2.55-1,3.89a12.94,12.94,0,0,0-.17,4.23c-.51,1.17-.27-1.13-.71-.54.39,1.53.08,3.24-.9,6.3l-.07-.39a57.34,57.34,0,0,1-1.55,5.74,48.68,48.68,0,0,1-1.73,4.79c-.62,1.55-1.25,3.14-2.09,4.86s-1.65,3.68-2.82,5.91l1-.39a17.76,17.76,0,0,1-1.94,3.1c-.05,2.73,2.56-5.51,2.71-3a10.8,10.8,0,0,0-2.08,3.05c-.75,1.41-1.66,3.06-2.5,4.71a40.28,40.28,0,0,1-2.64,4.42c-.84,1.22-1.59,2.1-2.21,2.28-1.8,2.78,1.22-.39-.58,2.41l-.85.5,0,1a6.93,6.93,0,0,1-1.72,1.82c-.49.34-.85.45-1,.37a19.1,19.1,0,0,0,1.08-1.75,24.31,24.31,0,0,0-3.08,4.11,24.89,24.89,0,0,1-2.18,3.05c.72-.78,1.46-1.54,2.17-2.34-1.31,1.84-2.72,3.77-4.27,5.65s-3.18,3.79-4.93,5.56l-2.55,2.72-2.59,2.58c-1.65,1.76-3.38,3.33-4.88,5l.72-.18c-.59.61-1.09,1.12-1.54,1.55s-.88.75-1.24,1c-.74.58-1.32,1-1.92,1.35l-2.07,1.36c-.85.55-1.92,1.3-3.38,2.43l.17-.22a19,19,0,0,1-4.3,3.41c1.35-1.33-3.35,1.24-1.53-.44-2.9,2.18-3.67,2.68-4.06,3.17a14.14,14.14,0,0,1-2.35,2.56l-1.25,0c-.62.6-.93,1-1.49,1.43a15.13,15.13,0,0,1-3,1.82c2.57-1.68-2.51.2.32-1.77a28.44,28.44,0,0,0-4.78,1.78c-1.36.61-2.52,1.18-3.57,1.73-2.08,1.12-3.77,1.84-5.73,1.56-1.43,1.3.21,1,2,.42s3.68-1.41,2.81-.87c.87-.07.29.47-.81,1.12a20.72,20.72,0,0,1-3.95,1.61,10.88,10.88,0,0,1-3.95.2,19.09,19.09,0,0,0-2.79.11c-.54.06-1.12.15-1.75.28s-1.33.23-2.08.41c.6-.13.61-.25,1.21-.38a13.63,13.63,0,0,0-3.39.82c-.57.18-1.16.37-1.79.5a9.59,9.59,0,0,1-2,.13c-1.4,1.2-3.63.6-3.9,1.85l5.57-1.27c-1.56.44-3,1.13-4.79,1.75a20.13,20.13,0,0,1-6.55,1,15.59,15.59,0,0,1,3-1.12c-1.59-.17-3,.66-4.61.41.18-.58,1.89-.84,4-1.15,1-.15,2.17-.29,3.25-.5a15.57,15.57,0,0,0,2.89-.92,14,14,0,0,0-3.59.7c-1.18.27-1.95.38-1.18-.36-1.12,1-2.64,1.11-4.37,1.23a16.28,16.28,0,0,0-5.74.82l.23-.73a13,13,0,0,1-3.23.56l2.16-1c-3.35.86-6.5-.46-9.71-.19,3.37.08,3.75.29,3.65.57s-.71.65.73.87c-8.44.8-4.8-1.79-14.08-2.19,1.26,0,4.69.8,2.69,1-.88-.15-1.91-.3-2.83-.55a14.24,14.24,0,0,1-2.27-.78c-6.14-.63.85.85-1.82.95-2-1.09-3.06-.12-5.82-.31l.11-.71c-.86-.21-1.54-.35-2.08-.44a8.16,8.16,0,0,0-1.24-.18,1.66,1.66,0,0,0-1.09.24c-.45.27-.82.55-3.89-.45l2.87-.37c-1.1-.18-2.21-.3-3.3-.52.29-.21.58-.4.87-.62a23.57,23.57,0,0,1-4.11-.72,27.87,27.87,0,0,1-3.86-1.41c.62.75-.84,1.1-3.85.11-1.87-1.14,1.35-.19-2.84-1.72a5.05,5.05,0,0,1,3.91,1.09c.27-.16,1.09-.11,1.35-.27a53.51,53.51,0,0,0-6.85-2.68,10.08,10.08,0,0,1,1.55.79c-1.05-.24-2.12-.46-3.18-.72l-3.14-.87c-.81-.67,0-.53.83-.4a37.67,37.67,0,0,1-3.94-1.31c.7-.31.85-.86,3.42,0-2-.6-3.84-1.37-5.76-2.1-.26-.4-2.44-2.06-1.64-1.89a30.12,30.12,0,0,0-5.34-2.65,26.6,26.6,0,0,1-5.85-3.46,5.28,5.28,0,0,1-1.53-.71c-.84-.64-1.64-1.29-2.42-1.94s-1.51-1.38-2.3-2.06-1.62-1.34-2.51-2a29.06,29.06,0,0,0-2.9-2.05c-.47-.89-1-1.74-1.41-2.66-3-2.52,1.89,3.64-3.12-.59-3.59-3-.63-1.83-1.56-3.18a42,42,0,0,1-3.78-2.66,17.26,17.26,0,0,1-3.85-4.62C105.48,280.58,106.09,281.51,107,282.45Zm-24.8-41.28c.22.42.59,1,.89,1.64a2.86,2.86,0,0,1,.49,1.58C82.41,243.7,82.48,242.78,82.21,241.17ZM77.56,168a6.76,6.76,0,0,1-.85,2.93A12,12,0,0,1,77.56,168Zm165.37-92.4h-.11C240.81,74.67,241.52,75,242.93,75.64Zm4.2,1.87c.47.07.47,0,.33-.2a7.33,7.33,0,0,1-2.4-.78A3.92,3.92,0,0,0,247.13,77.51ZM231.37,327.15l-.91,0C232.37,326.51,231.87,326.82,231.37,327.15Z" fill="#6735F4"/></g><g id="change1_59"><path d="M76.7,176.51a.7.7,0,0,1-.46.33C76.29,177.23,76.43,177.26,76.7,176.51Z" fill="#6735F4"/></g><g id="change1_60"><path d="M129.69,302l.12.09a.33.33,0,0,0,.19,0Z" fill="#6735F4"/></g><g id="change1_61"><path d="M178.37,76.79a6.67,6.67,0,0,1-1.78-.06C176.58,76.91,177,77,178.37,76.79Z" fill="#6735F4"/></g><g id="change1_62"><path d="M269.52,87.23c-.85-.5-1.76-.91-2.64-1.36A8.69,8.69,0,0,1,269,87.44C269.08,87.26,268.73,86.74,269.52,87.23Z" fill="#6735F4"/></g><g id="change1_63"><path d="M286.91,106.07c.36.22.65.61,1,.82l.15-.32C286.76,105.35,285.68,104.69,286.91,106.07Z" fill="#6735F4"/></g><g id="change1_64"><path d="M270.52,90.73c-.07.32.31.68.92,1.09.31.2.68.42,1.08.65l1.24.78-.29-.21c.49-.18.25-.52-.36-1A21.64,21.64,0,0,0,270.52,90.73Z" fill="#6735F4"/></g><g id="change1_65"><path d="M274.16,93.49c.53.34,1.06.7,1.54,1.08C276.09,94.43,275.12,94.07,274.16,93.49Z" fill="#6735F4"/></g><g id="change1_66"><path d="M252.68,79.34c.83.55.88-.46,1.28,0,.66-.13-.93-.59-2-.79-.55-.11-1-.11-1,0S251.42,78.88,252.68,79.34Z" fill="#6735F4"/></g><g id="change1_67"><path d="M270.8 93.29L270.61 92.28 269.33 92.17 270.8 93.29z" fill="#6735F4"/></g><g id="change1_68"><path d="M257.34,84.87l2.77,1.65c0-.13.41,0,.89.17C259.24,85.77,257.37,84.64,257.34,84.87Z" fill="#6735F4"/></g><g id="change1_69"><path d="M261,86.69a16.47,16.47,0,0,0,2.32,1.17A23,23,0,0,0,261,86.69Z" fill="#6735F4"/></g><g id="change1_70"><path d="M267,91.12l-.72-.64-1.93-1.18C265.22,89.91,266.14,90.46,267,91.12Z" fill="#6735F4"/></g><g id="change1_71"><path d="M224.68,73.63l-3.5-.41c-.39.19.52.51,1.82.64C223.86,73.84,225.17,74,224.68,73.63Z" fill="#6735F4"/></g><g id="change1_72"><path d="M234.47,78.08a3.89,3.89,0,0,1-1.32-1l-.34.87Z" fill="#6735F4"/></g><g id="change1_73"><path d="M224.62,75.93c-.4.19-5.06-.15-.75.56C224.26,76.27,227.69,76.74,224.62,75.93Z" fill="#6735F4"/></g><g id="change1_74"><path d="M172.64 75.31L173.5 75.09 173.06 73.63 172.64 75.31z" fill="#6735F4"/></g><g id="change1_75"><path d="M132.17,96.21c3.58-1.85.29-1.33,3.62-2.87.61-.82-2.72,1.27-2.06.49C131.86,95.46,130.67,96,132.17,96.21Z" fill="#6735F4"/></g><g id="change1_76"><path d="M133.72,93.82c.3-.26.61-.55.93-.87A8.14,8.14,0,0,0,133.72,93.82Z" fill="#6735F4"/></g><g id="change1_77"><path d="M331.51,207.55c.2-.9.29-1.82.43-2.73l-.56,1.75C331.43,206.9,331.46,207.23,331.51,207.55Z" fill="#6735F4"/></g><g id="change1_78"><path d="M330.55,202.27l1-.63-.84-1.64A6.47,6.47,0,0,1,330.55,202.27Z" fill="#6735F4"/></g><g id="change1_79"><path d="M81.92,233.76l-.28-.12a4.81,4.81,0,0,0,.3,2.2Z" fill="#6735F4"/></g><g id="change1_80"><path d="M95.39 265.7L95.08 265.19 94.95 266.6 95.39 265.7z" fill="#6735F4"/></g><g id="change1_81"><path d="M114.54,287.62c-.85-.82-1.95-1.7-2.74-2.59C113.67,286.81,114,288.62,114.54,287.62Z" fill="#6735F4"/></g></svg>